<?xml version="1.0" encoding="utf-8"?>
<!-- Generator: Adobe Illustrator 16.0.4, SVG Export Plug-In . SVG Version: 6.00 Build 0)  -->
<!DOCTYPE svg PUBLIC "-//W3C//DTD SVG 1.1//EN" "http://www.w3.org/Graphics/SVG/1.1/DTD/svg11.dtd">
<svg version="1.1" id="Icons" xmlns="http://www.w3.org/2000/svg" xmlns:xlink="http://www.w3.org/1999/xlink" x="0px" y="0px"
	 width="51.752px" height="37.069px" viewBox="0 0 51.752 37.069" enable-background="new 0 0 51.752 37.069" xml:space="preserve">
<g>
	<g>
		<path fill="#FFFFFF" d="M40.331,0h-1.224c0,0-6.149,22.089-6.743,24.219c-2.237,0-26.983,0-26.983,0
			c-0.889,0-1.611,0.722-1.611,1.609c0,0.891,0.722,1.611,1.611,1.611H34.81c0,0,6.151-22.088,6.744-24.22c1.874,0,8.588,0,8.588,0
			c0.89,0,1.61-0.721,1.61-1.61c0-0.889-0.721-1.609-1.61-1.609H40.331z"/>
	</g>
	<circle fill="#FFFFFF" cx="8.101" cy="33.429" r="3.641"/>
	<circle fill="#FFFFFF" cx="30.453" cy="33.429" r="3.641"/>
	<path fill="#FFFFFF" d="M35.939,0.672C35.588,0.249,35.02,0,34.417,0H1.528C0.493,0-0.173,0.721,0.04,1.609l4.398,18.349
		c0.212,0.889,1.105,1.609,1.995,1.609h22.06c0.69,0,1.283-0.44,1.473-1.096l6.227-18.347C36.383,1.632,36.29,1.091,35.939,0.672z
		 M4.565,6.746c0-2.013,1.628-3.644,3.639-3.644s3.643,1.631,3.643,3.644c0,2.009-1.632,3.639-3.643,3.639S4.565,8.755,4.565,6.746z
		 M13.05,18.756c-2.01,0-3.639-1.629-3.639-3.639c0-2.013,1.629-3.642,3.639-3.642c2.011,0,3.642,1.629,3.642,3.642
		C16.692,17.127,15.062,18.756,13.05,18.756z M13.816,6.746c0-2.013,1.629-3.644,3.641-3.644c2.011,0,3.641,1.631,3.641,3.644
		c0,2.009-1.63,3.639-3.641,3.639C15.446,10.385,13.816,8.755,13.816,6.746z M22.303,18.756c-2.011,0-3.64-1.629-3.64-3.639
		c0-2.013,1.629-3.642,3.64-3.642s3.64,1.629,3.64,3.642C25.943,17.127,24.314,18.756,22.303,18.756z M27.15,10.385
		c-2.011,0-3.64-1.63-3.64-3.639c0-2.013,1.629-3.644,3.64-3.644c2.01,0,3.641,1.631,3.641,3.644
		C30.791,8.755,29.16,10.385,27.15,10.385z"/>
</g>
</svg>
