<?xml version="1.0" encoding="utf-8"?>
<!-- Generator: Adobe Illustrator 16.0.4, SVG Export Plug-In . SVG Version: 6.00 Build 0)  -->
<!DOCTYPE svg PUBLIC "-//W3C//DTD SVG 1.1//EN" "http://www.w3.org/Graphics/SVG/1.1/DTD/svg11.dtd">
<svg version="1.1" id="icons" xmlns="http://www.w3.org/2000/svg" xmlns:xlink="http://www.w3.org/1999/xlink" x="0px" y="0px"
	 width="35.645px" height="35.695px" viewBox="0 0 35.645 35.695" enable-background="new 0 0 35.645 35.695" xml:space="preserve">
<path fill-rule="evenodd" clip-rule="evenodd" fill="#FFFFFF" d="M17.823,0c9.844,0,17.822,7.991,17.822,17.847
	c0,9.857-7.979,17.848-17.822,17.848C7.979,35.695,0,27.705,0,17.847C0,7.991,7.979,0,17.823,0z"/>
<g>
	<path fill="#606161" d="M29.624,11.458l-2.537-2.536c-0.389-0.389-1.025-0.389-1.414,0l-10.69,10.688l-5.039-4.947
		c-0.393-0.385-1.029-0.379-1.414,0.014l-2.514,2.56c-0.385,0.393-0.379,1.029,0.014,1.414l8.254,8.102
		c0.004,0.004,0.01,0.004,0.014,0.008l0.012,0.012c0.389,0.389,1.025,0.389,1.414,0l13.901-13.899
		C30.012,12.484,30.012,11.847,29.624,11.458z"/>
</g>
</svg>
