<?xml version="1.0" encoding="utf-8"?>
<!-- Generator: Adobe Illustrator 16.0.4, SVG Export Plug-In . SVG Version: 6.00 Build 0)  -->
<!DOCTYPE svg PUBLIC "-//W3C//DTD SVG 1.1//EN" "http://www.w3.org/Graphics/SVG/1.1/DTD/svg11.dtd">
<svg version="1.1" id="Layer_1" xmlns="http://www.w3.org/2000/svg" xmlns:xlink="http://www.w3.org/1999/xlink" x="0px" y="0px"
	 width="47.013px" height="45.01px" viewBox="0 0 47.013 45.01" enable-background="new 0 0 47.013 45.01" xml:space="preserve">
<path fill-rule="evenodd" clip-rule="evenodd" fill="#FFFFFF" d="M47.013,39.866l-5.009,5.144L26.767,30.546
	c-2.765,1.916-6.115,3.061-9.749,3.061C7.619,33.606,0,26.084,0,16.803C0,7.523,7.619,0,17.018,0s17.018,7.523,17.018,16.803
	c0,3.104-0.911,5.974-2.397,8.468L47.013,39.866z M16.792,6.045c-5.766,0-10.44,4.782-10.44,10.682c0,5.9,4.674,10.683,10.44,10.683
	c5.766,0,10.44-4.783,10.44-10.683C27.232,10.827,22.559,6.045,16.792,6.045z"/>
</svg>
