<?xml version="1.0" encoding="utf-8"?>
<!-- Generator: Adobe Illustrator 16.0.4, SVG Export Plug-In . SVG Version: 6.00 Build 0)  -->
<!DOCTYPE svg PUBLIC "-//W3C//DTD SVG 1.1//EN" "http://www.w3.org/Graphics/SVG/1.1/DTD/svg11.dtd">
<svg version="1.1" id="Layer_1" xmlns="http://www.w3.org/2000/svg" xmlns:xlink="http://www.w3.org/1999/xlink" x="0px" y="0px"
	 width="38.538px" height="49.783px" viewBox="9.937 4.622 38.538 49.783" enable-background="new 9.937 4.622 38.538 49.783"
	 xml:space="preserve">
<path d="M30.374,4.622c-13.586,0-20.437,9.74-20.437,17.864c0,4.918,1.861,9.293,5.854,10.922c0.655,0.27,1.242,0.01,1.433-0.715
	c0.132-0.5,0.444-1.767,0.584-2.295c0.19-0.717,0.116-0.967-0.412-1.594c-1.151-1.357-1.889-3.115-1.889-5.607
	c0-7.226,5.407-13.695,14.079-13.695c7.68,0,11.898,4.692,11.898,10.957c0,8.246-3.649,15.205-9.065,15.205
	c-2.991,0-5.229-2.473-4.514-5.508c0.859-3.623,2.524-7.531,2.524-10.148c0-2.34-1.258-4.292-3.856-4.292
	c-3.058,0-5.515,3.164-5.515,7.401c0,2.699,0.912,4.525,0.912,4.525s-3.13,13.26-3.679,15.582
	c-1.092,4.625-0.164,10.293-0.085,10.864c0.046,0.341,0.482,0.422,0.681,0.166c0.28-0.369,3.925-4.864,5.161-9.358
	c0.352-1.271,2.012-7.859,2.012-7.859c0.994,1.896,3.897,3.562,6.985,3.562c9.191,0,15.429-8.38,15.429-19.596
	C48.476,12.521,41.292,4.622,30.374,4.622z"/>
</svg>
